Patient4_TMGait_0pt4_01_right_12_EMG.mot
version=1
nRows=19
nColumns=33
inDegrees=no
endheader
time	1LAddLong	2LGlutMax	3LGlutMed	4LIliopsoas	5LSemiMemb	6LBicFemLong	7LRecFem	8LVastMed	9LVastLat	10LGasMed	11LTibAnt	12lTibPost	13LPeroneusLong	14LSol	15LExtDigLong	16LFlexDigLong	17RAddLong	18RGlutMax	19RGlutMed	20RIliopsoas	21RSemiMemb	22RBicFemLong	23RRecFem	24RVastMed	25RVastLat	26RGasMed	27RTibAnt	28RTibPost	29RPeroneusLong	30RSol	31RExtDigLong	32RFlexDigLong
16.285	0.018005	-0.16632	0.061646	0.00824	0.1033	0.035706	-0.021667	0.00885	-0.033875	0.01358	0.001526	0.004272	0.005951	-0.049133	0.011749	0.001068	0.061493	-0.2359	-0.023346	-0.062866	0.044098	0.58655	-0.16281	-0.050354	-0.027771	-0.013885	-0.077667	-0.035553	0.57968	-0.75623	-0.000305	-0.017395
16.286	0.028381	-0.10178	0.039825	0.004883	0.042877	0.044098	-0.069427	0.012207	-0.022278	0.007019	-0.003815	0.001984	-0.001068	-0.043335	0.002747	-0.004425	0.065002	-0.16083	-0.058746	-0.0177	-0.20752	0.522	-0.13199	-0.075531	-0.028687	-0.017242	-0.006256	-0.52811	0.37354	-0.52231	-0.003052	-0.021057
16.287	0.034637	-0.083771	0.023499	0.021667	-0.030518	0.07431	-0.053253	0.015564	-0.026855	0.009003	-0.001221	0.000458	-0.008392	0.010529	0.005646	-0.003357	0.099335	-0.12344	-0.02243	-0.005951	-0.047302	0.34363	-0.19379	-0.13779	-0.018463	-0.020447	0.049744	0.16068	-0.051575	-0.032196	-0.003052	-0.020142
16.288	0.036163	-0.094452	0.029449	0.026245	-0.02655	0.082245	-0.065002	0.001984	-0.006866	0.00885	-0.001984	0.000305	-0.023041	0.007477	-0.005493	0.011444	0.093994	-0.18356	-0.058746	0.003662	-0.003052	0.2124	-0.15579	-0.097351	-0.019531	-0.005493	0.11261	0.20432	-0.29007	0.14526	-0.001373	-0.018616
16.289	0.029144	-0.092773	0.035248	0.000458	0.012665	0.10941	-0.10101	-0.002899	0.002747	0.015869	0.006104	0.000763	-0.031433	0.009155	-0.007477	0.000458	0.020599	-0.13168	-0.10193	0.019226	0.11169	0.30167	-0.21133	0.053558	0.006561	-0.009003	0.072937	0.067749	-0.28915	0.026703	-0.00061	-0.016479
16.29	0.008087	-0.06958	0.027313	0.019073	-0.023651	0.11551	-0.074463	0.003967	0.005951	0.007172	0.000153	-0.003204	-0.023193	0.034485	-0.020599	0.004425	-0.072021	-0.12604	-0.12543	-0.006714	0.053558	0.42068	-0.21973	0.1033	0.030518	-0.063019	0.008698	-0.001678	-0.3305	-0.13016	-0.000305	-0.020447
16.291	-0.010681	-0.057678	0.033569	0.021667	-0.029144	0.11017	0.031586	-0.001526	-0.018768	0.007324	-0.001068	0.00351	0.02655	0.000916	-0.002747	0.003357	-0.070496	-0.14511	-0.10071	-0.069122	-0.12451	0.41321	-0.1564	0.05249	0.013123	-0.023193	0.023193	0.006866	-0.19836	-0.2269	-0.002899	-0.016785
16.292	-0.021667	-0.065613	0.010681	0.004425	-0.046539	0.1471	0.047302	-0.011139	-0.036926	0.024872	0.010834	0.003967	0.012665	-0.061951	-0.001831	0.008698	-0.055237	-0.1799	-0.090485	-0.085754	-0.025787	0.43686	-0.15671	0.039215	0.037384	0.027771	0.025482	-0.012817	-0.24445	0.26596	-0.000458	-0.010376
16.293	-0.027161	-0.046234	0.013428	0.005341	-0.080414	0.21347	0.079346	-0.006714	-0.070953	0.032806	0	0.008087	0.046997	-0.023346	0.018005	-0.000305	-0.042725	-0.12009	-0.15854	-0.031433	0.029602	0.47379	-0.16708	-0.025482	0.019073	0.052338	0.017395	0.003662	-0.34332	0.6926	-0.001831	-0.003662
16.294	-0.10468	-0.030975	0.024872	-0.006714	-0.11246	0.26642	0.097504	-0.006104	-0.1152	0.006256	-0.001068	0.006561	0.07431	-0.026093	0.004425	-0.001068	-0.023804	-0.13001	-0.10284	0.00351	0.016022	0.45487	-0.13123	-0.039978	0.001831	-0.045776	0.045166	0.020294	-0.27069	0.14832	-0.005951	-0.001373
16.295	-0.076294	-0.046997	-0.01358	-0.005493	-0.046082	0.18662	0.084839	0.005646	-0.16296	0.009003	0.004578	0.002899	-0.1152	-0.031891	-0.005493	0.001831	-0.025787	-0.11627	-0.28183	0.051422	0.007324	0.41092	-0.16632	0.027924	-0.003662	-0.12039	0.004578	-0.03952	-0.26459	-0.15823	-0.001678	-0.00351
16.296	-0.004883	-0.057831	-0.018768	-0.002136	-0.022583	0.071106	0.010529	0.004272	-0.16495	0.016327	-0.001526	0.003662	-0.070648	-0.028534	-0.015869	-0.007324	-0.022278	-0.14435	-0.20828	0.08194	0.13458	0.40497	-0.14801	0.010376	-0.002899	-0.055237	0.010834	-0.30868	-0.16602	0.13992	-0.000916	-0.009003
16.297	0.036926	-0.007324	-0.021973	-0.001831	0.033417	0.00412	-0.064697	-0.004578	-0.0914	0.02182	-0.009766	0.00824	-0.015717	-0.024261	-0.011292	-0.00412	-0.019073	-0.14236	-0.11139	0.046234	0.2153	0.40695	-0.13275	0.007172	-0.003662	-0.024414	0.042267	-0.50079	0.20844	0.10819	-0.007324	-0.015106
16.298	0.030365	-0.009308	0.005188	0.007935	0.10437	-0.076904	-0.16464	-0.001984	-0.003357	0.011749	-0.002899	-0.00412	-0.024872	-0.11871	-0.002747	-0.000458	-0.029755	-0.1387	-0.24628	0.032043	0.22385	0.3714	-0.15457	0.020447	0.001526	-0.060272	-0.014801	0.35568	0.60196	-0.18662	-0.006714	-0.021362
16.299	0.025177	-0.006561	-0.017548	0.002747	0.061493	-0.17334	-0.14313	0.003052	0.097961	0.014954	0.000458	0.005646	-0.022888	-0.034943	0.003815	0.004272	-0.026855	-0.16068	0.048065	0.063477	0.17929	0.25818	-0.11231	-0.009766	0.015411	-0.076599	-0.023499	0.26504	0.56488	0.15243	-0.001678	-0.017395
16.3	0.02655	0.032043	0.016785	0.005951	0.004425	-0.3624	-0.22736	-0.00351	0.11597	0.013275	0.005798	0.012512	-0.028076	0.063782	0.001221	0.001831	-0.001068	-0.16861	0.26535	0.039673	0.12314	0.23544	-0.090942	-0.053253	-0.012207	-0.082397	0.018921	0.10132	0.25971	0.52734	-0.003052	-0.013733
16.301	0.022583	0.057678	0.071411	-0.003357	-0.022888	-0.25925	-0.20493	-0.006866	0.17487	0.003052	-0.002441	0.000305	0.02182	0.028381	-0.001373	-0.006561	0.000916	-0.19592	-0.21896	0.020447	0.11734	0.25543	-0.063019	-0.036163	-0.027466	-0.11948	-0.029297	0.062256	0.17395	0.45029	-0.001526	-0.013123
16.302	0.015106	-0.010223	0.1326	0.013275	-0.014648	-0.10239	-0.083313	-0.012054	0.20752	0.009308	-0.00061	0.00473	0.035858	-0.039368	0.007782	0.002899	0.016632	-0.25894	0.079193	-0.027008	0.1001	0.17883	-0.092926	-0.01358	-0.018005	-0.12726	-0.015869	0.003204	0.10407	0.3569	-0.001373	-0.005951
16.303	0.014496	-0.00061	0.13321	0.019684	0.027466	-0.043488	0.05188	-0.008698	0.23499	0.022888	0.00412	0.000153	0.00824	-0.028992	0.02121	0.002289	0.013733	-0.22125	0.13107	-0.026703	0.084076	0.11337	-0.15503	-0.019684	-0.028534	-0.084839	-0.045929	-0.12299	-0.1326	0.14404	-0.003662	-0.012207
